<svg xmlns="http://www.w3.org/2000/svg" xmlns:xlink="http://www.w3.org/1999/xlink" width="16" height="14"><defs><path id="a" d="M0 3.32630157c0-.54840121.44463086-.99296824 1.00087166-.99296824H14.9991283c.5527662 0 1.0008717.44034577 1.0008717.99296824v.68073019C16 4.55543298 15.5553691 5 14.9991283 5H1.00087166C.4481055 5 0 4.55965424 0 4.00703176v-.68073019Zm0 5.33333334c0-.54840122.44463086-.99296824 1.00087166-.99296824H14.9991283c.5527662 0 1.0008717.44034576 1.0008717.99296824v.68073018c0 .54840122-.4446309.99296821-1.0008717.99296821H1.00087166C.4481055 10.3333333 0 9.89298757 0 9.34036509v-.68073018Zm0 5.33333329C0 13.444567.44463086 13 1.00087166 13H14.9991283C15.5518945 13 16 13.4403458 16 13.9929682v.6807302c0 .5484012-.4446309.9929683-1.0008717.9929683H1.00087166C.4481055 15.6666667 0 15.2263209 0 14.6736984v-.6807302Z"/></defs><use xlink:href="#a" fill="#333333" fill-rule="evenodd" transform="translate(0 -2)"/></svg>